<svg width="109" height="20" viewBox="0 0 109 20" fill="none" xmlns="http://www.w3.org/2000/svg">
<g id="HomePro">
<path d="M0 18.796V0.916016H3.72V8.64402H10.68V0.916016H14.4V18.796H10.68V11.884H3.72V18.796H0Z" fill="white"/>
<path d="M23.8181 19.084C22.5221 19.084 21.3381 18.788 20.2661 18.196C19.2101 17.604 18.3621 16.796 17.7221 15.772C17.0981 14.732 16.7861 13.556 16.7861 12.244C16.7861 10.916 17.0981 9.74002 17.7221 8.71602C18.3621 7.69202 19.2101 6.88402 20.2661 6.29202C21.3381 5.70002 22.5221 5.40402 23.8181 5.40402C25.1141 5.40402 26.2901 5.70002 27.3461 6.29202C28.4021 6.88402 29.2421 7.69202 29.8661 8.71602C30.5061 9.74002 30.8261 10.916 30.8261 12.244C30.8261 13.556 30.5061 14.732 29.8661 15.772C29.2421 16.796 28.4021 17.604 27.3461 18.196C26.2901 18.788 25.1141 19.084 23.8181 19.084ZM23.8181 15.844C24.4741 15.844 25.0421 15.692 25.5221 15.388C26.0181 15.084 26.4021 14.66 26.6741 14.116C26.9621 13.572 27.1061 12.948 27.1061 12.244C27.1061 11.54 26.9621 10.924 26.6741 10.396C26.4021 9.85202 26.0181 9.42802 25.5221 9.12402C25.0421 8.80402 24.4741 8.64402 23.8181 8.64402C23.1621 8.64402 22.5861 8.80402 22.0901 9.12402C21.5941 9.42802 21.2021 9.85202 20.9141 10.396C20.6421 10.924 20.5061 11.54 20.5061 12.244C20.5061 12.948 20.6421 13.572 20.9141 14.116C21.2021 14.66 21.5941 15.084 22.0901 15.388C22.5861 15.692 23.1621 15.844 23.8181 15.844Z" fill="white"/>
<path d="M32.9469 18.796V5.69202H36.3069V8.88402L35.9469 8.35602C36.1389 7.34802 36.6029 6.60402 37.3389 6.12402C38.0749 5.64402 38.9549 5.40402 39.9789 5.40402C41.0669 5.40402 42.0189 5.68402 42.8349 6.24402C43.6669 6.78802 44.1869 7.52402 44.3949 8.45202L43.3629 8.54802C43.7949 7.47602 44.4109 6.68402 45.2109 6.17202C46.0109 5.66002 46.9469 5.40402 48.0189 5.40402C48.9629 5.40402 49.7949 5.61202 50.5149 6.02802C51.2509 6.44402 51.8269 7.02802 52.2429 7.78002C52.6589 8.51602 52.8669 9.38002 52.8669 10.372V18.796H49.2669V11.14C49.2669 10.628 49.1709 10.188 48.9789 9.82002C48.8029 9.45202 48.5469 9.16402 48.2109 8.95602C47.8749 8.74802 47.4669 8.64402 46.9869 8.64402C46.5229 8.64402 46.1149 8.74802 45.7629 8.95602C45.4269 9.16402 45.1629 9.45202 44.9709 9.82002C44.7949 10.188 44.7069 10.628 44.7069 11.14V18.796H41.1069V11.14C41.1069 10.628 41.0109 10.188 40.8189 9.82002C40.6429 9.45202 40.3869 9.16402 40.0509 8.95602C39.7149 8.74802 39.3069 8.64402 38.8269 8.64402C38.3629 8.64402 37.9549 8.74802 37.6029 8.95602C37.2669 9.16402 37.0029 9.45202 36.8109 9.82002C36.6349 10.188 36.5469 10.628 36.5469 11.14V18.796H32.9469Z" fill="white"/>
<path d="M61.548 19.084C60.156 19.084 58.948 18.78 57.924 18.172C56.9 17.548 56.108 16.716 55.548 15.676C54.988 14.636 54.708 13.484 54.708 12.22C54.708 10.908 54.996 9.74002 55.572 8.71602C56.164 7.69202 56.956 6.88402 57.948 6.29202C58.94 5.70002 60.06 5.40402 61.308 5.40402C62.348 5.40402 63.268 5.57202 64.068 5.90802C64.868 6.22802 65.54 6.68402 66.084 7.27602C66.644 7.86802 67.068 8.55602 67.356 9.34002C67.644 10.108 67.788 10.948 67.788 11.86C67.788 12.116 67.772 12.372 67.74 12.628C67.724 12.868 67.684 13.076 67.62 13.252H57.804V10.612H65.58L63.876 11.86C64.036 11.172 64.028 10.564 63.852 10.036C63.676 9.49202 63.364 9.06802 62.916 8.76402C62.484 8.44402 61.948 8.28402 61.308 8.28402C60.684 8.28402 60.148 8.43602 59.7 8.74002C59.252 9.04402 58.916 9.49202 58.692 10.084C58.468 10.676 58.38 11.396 58.428 12.244C58.364 12.98 58.452 13.628 58.692 14.188C58.932 14.748 59.3 15.188 59.796 15.508C60.292 15.812 60.892 15.964 61.596 15.964C62.236 15.964 62.78 15.836 63.228 15.58C63.692 15.324 64.052 14.972 64.308 14.524L67.188 15.892C66.932 16.532 66.524 17.092 65.964 17.572C65.42 18.052 64.772 18.428 64.02 18.7C63.268 18.956 62.444 19.084 61.548 19.084Z" fill="white"/>
<path d="M70.1719 18.796V0.916016H77.0359C78.2679 0.916016 79.3559 1.13202 80.2999 1.56402C81.2599 1.99602 82.0119 2.63602 82.5559 3.48402C83.0999 4.33202 83.3719 5.38002 83.3719 6.62802C83.3719 7.84402 83.0919 8.87602 82.5319 9.72402C81.9879 10.572 81.2359 11.22 80.2759 11.668C79.3319 12.1 78.2519 12.316 77.0359 12.316H73.8919V18.796H70.1719ZM73.8919 9.07602H77.0599C77.5879 9.07602 78.0439 8.97202 78.4279 8.76402C78.8119 8.55602 79.1079 8.26802 79.3159 7.90002C79.5399 7.53202 79.6519 7.10802 79.6519 6.62802C79.6519 6.13202 79.5399 5.70002 79.3159 5.33202C79.1079 4.96402 78.8119 4.67602 78.4279 4.46802C78.0439 4.26002 77.5879 4.15602 77.0599 4.15602H73.8919V9.07602Z" fill="white"/>
<path d="M85.4938 18.796V5.69202H88.8538V8.83602L88.6138 8.38002C88.9018 7.27602 89.3738 6.53202 90.0298 6.14802C90.7018 5.74802 91.4938 5.54802 92.4058 5.54802H93.1738V8.66802H92.0458C91.1658 8.66802 90.4538 8.94002 89.9098 9.48402C89.3658 10.012 89.0938 10.764 89.0938 11.74V18.796H85.4938Z" fill="white"/>
<path d="M101.256 19.084C99.9596 19.084 98.7756 18.788 97.7036 18.196C96.6476 17.604 95.7996 16.796 95.1596 15.772C94.5356 14.732 94.2236 13.556 94.2236 12.244C94.2236 10.916 94.5356 9.74002 95.1596 8.71602C95.7996 7.69202 96.6476 6.88402 97.7036 6.29202C98.7756 5.70002 99.9596 5.40402 101.256 5.40402C102.552 5.40402 103.728 5.70002 104.784 6.29202C105.84 6.88402 106.68 7.69202 107.304 8.71602C107.944 9.74002 108.264 10.916 108.264 12.244C108.264 13.556 107.944 14.732 107.304 15.772C106.68 16.796 105.84 17.604 104.784 18.196C103.728 18.788 102.552 19.084 101.256 19.084ZM101.256 15.844C101.912 15.844 102.48 15.692 102.96 15.388C103.456 15.084 103.84 14.66 104.112 14.116C104.4 13.572 104.544 12.948 104.544 12.244C104.544 11.54 104.4 10.924 104.112 10.396C103.84 9.85202 103.456 9.42802 102.96 9.12402C102.48 8.80402 101.912 8.64402 101.256 8.64402C100.6 8.64402 100.024 8.80402 99.5276 9.12402C99.0316 9.42802 98.6396 9.85202 98.3516 10.396C98.0796 10.924 97.9436 11.54 97.9436 12.244C97.9436 12.948 98.0796 13.572 98.3516 14.116C98.6396 14.66 99.0316 15.084 99.5276 15.388C100.024 15.692 100.6 15.844 101.256 15.844Z" fill="white"/>
</g>
</svg>
